<svg width="48" height="48" viewBox="0 0 48 48" fill="none" xmlns="http://www.w3.org/2000/svg">
<g clip-path="url(#clip0_272_3428)">
<mask id="mask0_272_3428" style="mask-type:luminance" maskUnits="userSpaceOnUse" x="0" y="0" width="48" height="48">
<path d="M47.3332 0.7854H0.666504V47.4521H47.3332V0.7854Z" fill="white"/>
</mask>
<g mask="url(#mask0_272_3428)">
<path d="M32.0078 1.75607L46.3625 16.1107V46.4814H15.8425L1.65584 32.2947V1.75607H32.0078ZM32.3998 0.7854H0.666504V32.6681L15.4505 47.4521H47.3332V15.7187L32.3998 0.7854Z" fill="#0B0C0D"/>
<path d="M8.24508 27.068V28.7854H7.27441V24.1187H9.06641C9.49575 24.0814 9.88775 24.2307 10.2424 24.5107C10.8211 25.1267 10.8211 26.06 10.2424 26.6947C9.92508 26.9747 9.49575 27.124 9.06641 27.0867H8.24508V27.068ZM8.24508 26.34H8.95441C9.14108 26.34 9.34641 26.3027 9.45841 26.1534C9.68241 25.836 9.68241 25.3694 9.45841 25.0707C9.30908 24.9587 9.14108 24.884 8.95441 24.884H8.24508V26.34ZM14.7411 28.7854L14.4238 27.74H12.8371L12.5197 28.7854H11.4744L13.0984 24.1187H14.2185L15.8051 28.7854H14.7411ZM13.0424 26.9934H14.2185L13.6211 25.052L13.0424 26.9934ZM17.2238 28.7854V24.1187H19.0158C19.4451 24.0814 19.8371 24.2307 20.1918 24.5107C20.4718 24.7907 20.6211 25.164 20.6211 25.556C20.6211 25.836 20.5465 26.06 20.3785 26.3027C20.2291 26.5267 19.9865 26.6947 19.7625 26.8067L20.9385 28.8227H19.8931L18.8851 26.9934H18.2131V28.7854H17.2238ZM18.2131 26.2654H18.9225C19.2771 26.3027 19.5758 26.0787 19.6131 25.724C19.6131 25.6494 19.6131 25.612 19.6131 25.5374C19.6505 25.1827 19.4265 24.884 19.1091 24.8467C19.0718 24.8467 18.9971 24.8467 18.9598 24.8467H18.2505V26.284H18.2131V26.2654ZM23.2905 28.7854V24.94H21.8531V24.1187H25.6985V24.94H24.2611V28.7854H23.2905ZM28.1625 25.556V28.7854H27.2665V24.1187H28.3491L30.2531 27.3854V24.1187H31.1491V28.7854H30.0665L28.1625 25.556ZM32.9411 28.7854V24.1187H36.0211V24.9027H33.9678V25.9854H35.6478V26.7694H33.9678V28.02H36.0211V28.804H32.9411V28.7854ZM37.8131 28.7854V24.1187H39.6051C40.0345 24.0814 40.4265 24.2307 40.7811 24.5107C41.0611 24.7907 41.2105 25.164 41.2105 25.556C41.2105 25.836 41.1358 26.06 40.9865 26.3027C40.8371 26.5267 40.5945 26.6947 40.3705 26.8067L41.5465 28.8227H40.5011L39.4931 26.9934H38.8398V28.7854H37.8131ZM38.7838 26.2654H39.4931C39.8478 26.3027 40.1465 26.0787 40.1838 25.724C40.1838 25.6494 40.1838 25.612 40.1838 25.5374C40.2211 25.1827 39.9971 24.884 39.6798 24.8467C39.6425 24.8467 39.5678 24.8467 39.5305 24.8467H38.7838V26.2654Z" fill="#0B0C0D"/>
<path d="M11.0452 11.4815C11.0452 11.6308 11.0452 11.7988 11.1199 11.9482C11.1572 12.0602 11.2319 12.2282 11.2692 12.3402C11.3065 12.3775 11.3065 12.4148 11.3065 12.4522C11.3065 12.5268 11.2692 12.5642 11.1945 12.6015L10.8399 12.8255C10.8399 12.8255 10.8025 12.8255 10.7279 12.8255C10.6532 12.8255 10.6159 12.7882 10.5785 12.7508C10.5039 12.6762 10.4292 12.6015 10.3919 12.5082C10.3545 12.4335 10.2799 12.3215 10.2425 12.1908C9.85053 12.6575 9.30919 12.9375 8.69319 12.9375C8.30119 12.9748 7.90919 12.8255 7.64786 12.5455C7.36786 12.2655 7.25586 11.9295 7.25586 11.5375C7.25586 11.1082 7.40519 10.7162 7.72253 10.4548C8.07719 10.1748 8.54386 10.0255 9.01053 10.0255C9.19719 10.0255 9.40253 10.0255 9.55186 10.0628C9.73853 10.1002 9.94386 10.1375 10.1305 10.1748V9.78284C10.1679 9.46551 10.0932 9.16684 9.88786 8.92417C9.66386 8.7375 9.34653 8.64417 9.02919 8.70017C8.84253 8.70017 8.63719 8.7375 8.45053 8.77484C8.26386 8.81217 8.05853 8.88684 7.87186 8.9615C7.79719 8.99884 7.75986 8.99884 7.68519 9.03617C7.64786 9.03617 7.64786 9.03617 7.61053 9.03617C7.53586 9.03617 7.49853 8.99884 7.49853 8.88684V8.60684C7.49853 8.53217 7.49853 8.49484 7.53586 8.42017C7.57319 8.38284 7.61053 8.3455 7.68519 8.30817C7.87186 8.19617 8.11453 8.1215 8.33853 8.08417C8.61853 8.0095 8.87986 7.97217 9.15986 7.97217C9.66386 7.93484 10.1305 8.08417 10.5225 8.4015C10.8399 8.75617 10.9892 9.22284 10.9519 9.68951L11.0452 11.4815ZM8.91719 12.2655C9.10386 12.2655 9.27186 12.2282 9.45853 12.1908C9.64519 12.1162 9.81319 12.0042 9.96253 11.8362C10.0372 11.7615 10.1119 11.6495 10.1492 11.4815C10.1865 11.3322 10.1865 11.1642 10.1865 11.0148V10.7722C10.0372 10.7348 9.86919 10.6975 9.71986 10.6975C9.57053 10.6602 9.40253 10.6602 9.21586 10.6602C8.93586 10.6228 8.67453 10.6975 8.43186 10.8468C8.11453 11.1642 8.07719 11.6682 8.35719 12.0228C8.52519 12.2282 8.71186 12.3028 8.91719 12.2655ZM13.1545 12.8442C13.0799 12.8442 13.0052 12.8442 12.9679 12.8068C12.9305 12.7695 12.8932 12.6948 12.8559 12.6202L11.6052 8.53217C11.5679 8.4575 11.5679 8.38284 11.5679 8.3455C11.5679 8.27084 11.6052 8.23351 11.6425 8.23351H11.6799H12.1839C12.2585 8.23351 12.3332 8.23351 12.3705 8.27084C12.4079 8.30817 12.4452 8.38284 12.4825 8.4575L13.3785 11.9108L14.1998 8.43884C14.1998 8.36417 14.2372 8.28951 14.3118 8.25217C14.3865 8.21484 14.4612 8.21484 14.4985 8.21484H14.9278C15.0025 8.21484 15.0772 8.21484 15.1145 8.25217C15.1518 8.28951 15.1892 8.36417 15.2265 8.43884L16.0478 11.9855L16.9438 8.43884C16.9438 8.36417 16.9812 8.28951 17.0558 8.25217C17.1305 8.21484 17.1678 8.21484 17.2425 8.21484H17.7465C17.8212 8.21484 17.8585 8.25217 17.8585 8.2895V8.32684C17.8585 8.36417 17.8585 8.36417 17.8585 8.4015C17.8585 8.43884 17.8212 8.47617 17.8212 8.51351L16.5705 12.5642C16.5705 12.6388 16.5332 12.7135 16.4585 12.7508C16.4212 12.8255 16.3465 12.8255 16.2718 12.8255H15.8052C15.7305 12.8255 15.6558 12.8255 15.6185 12.7882C15.5812 12.7135 15.5438 12.6762 15.5065 12.6015L14.6852 9.22284L13.8638 12.6015C13.8638 12.6762 13.8265 12.7508 13.7518 12.7882C13.7145 12.8255 13.6398 12.8255 13.6025 12.8255H13.1545V12.8442ZM19.9118 12.9935C19.6318 12.9935 19.3705 12.9562 19.0905 12.9188C18.9038 12.8815 18.6612 12.8068 18.4745 12.7322C18.3625 12.6948 18.2878 12.5828 18.2878 12.4148V12.1348C18.2878 12.0228 18.3252 11.9855 18.3998 11.9855C18.4372 11.9855 18.4745 11.9855 18.4745 11.9855C18.5118 11.9855 18.5492 12.0228 18.5865 12.0228C18.7732 12.0975 18.9785 12.1722 19.1652 12.2095C19.3518 12.2468 19.5945 12.2842 19.7812 12.2842C20.0612 12.2842 20.3225 12.2468 20.5652 12.0975C20.7145 11.9855 20.8452 11.7802 20.8452 11.5935C20.8452 11.4442 20.8078 11.3135 20.6958 11.2388C20.5465 11.1268 20.3412 11.0148 20.1545 10.9588L19.3705 10.7348C19.0532 10.6602 18.7545 10.4548 18.5118 10.1935C18.3625 9.96951 18.2318 9.6895 18.2318 9.4095C18.2318 9.22284 18.2692 9.01751 18.3812 8.83084C18.4558 8.6815 18.6052 8.5135 18.7732 8.4015C18.9225 8.2895 19.1278 8.17751 19.3145 8.12151C19.5385 8.04684 19.7438 8.04684 19.9678 8.04684C20.0798 8.04684 20.2105 8.04684 20.3225 8.08417C20.4345 8.08417 20.5465 8.1215 20.6772 8.15884C20.7892 8.19617 20.8638 8.19617 20.9945 8.23351C21.0692 8.27084 21.1438 8.27084 21.2185 8.30817C21.2932 8.3455 21.3305 8.38284 21.3678 8.42017C21.4052 8.4575 21.4052 8.53217 21.4052 8.60684V8.84951C21.4052 8.96151 21.3678 8.99884 21.2932 8.99884C21.2185 8.99884 21.1438 8.9615 21.1065 8.92417C20.7892 8.77484 20.4532 8.73751 20.0985 8.73751C19.8745 8.73751 19.6318 8.77484 19.3892 8.88684C19.2585 8.99884 19.1465 9.18551 19.1838 9.37217C19.1838 9.52151 19.2212 9.65217 19.3332 9.76417C19.4825 9.9135 19.6878 9.98817 19.9118 10.0442L20.6585 10.2682C20.9758 10.3428 21.2372 10.5482 21.4798 10.7722C21.6292 10.9588 21.7038 11.2388 21.7038 11.5188C21.7038 11.7055 21.6665 11.9482 21.5545 12.1348C21.4798 12.3215 21.3305 12.4895 21.1625 12.6015C21.0132 12.7135 20.7705 12.8255 20.5838 12.9188C20.4158 12.9562 20.1545 12.9935 19.9118 12.9935Z" fill="#0B0C0D"/>
<path d="M20.8822 15.5321C19.1462 16.8014 16.6448 17.4734 14.4795 17.4734C11.6048 17.4734 8.80479 16.4281 6.65812 14.4868C6.50879 14.3374 6.65812 14.1321 6.84479 14.2628C9.21545 15.6441 11.9408 16.3348 14.6662 16.3348C16.7195 16.3348 18.7542 15.9054 20.6582 15.1214C20.9195 15.0094 21.1995 15.3268 20.8822 15.5321ZM21.1622 16.6894C21.0875 16.8388 21.2368 16.9134 21.4048 16.8014C22.3382 16.0174 22.5808 14.3934 22.3755 14.1508C22.1888 13.9268 20.5462 13.7214 19.5755 14.4308C19.4262 14.5428 19.4635 14.7108 19.6128 14.6548C20.1542 14.5801 21.4048 14.4308 21.6288 14.7294C21.8528 15.0654 21.3488 16.1854 21.1622 16.6894Z" fill="#0B0C0D"/>
<path d="M23.7943 31.828C23.5703 31.7347 23.421 31.6414 23.309 31.5294C23.2157 31.4174 23.1597 31.268 23.1597 31.1C23.1597 30.8574 23.253 30.6707 23.421 30.5214C23.589 30.372 23.813 30.316 24.1117 30.316C24.3543 30.316 24.597 30.3534 24.8397 30.4467V30.82C24.5783 30.7454 24.3543 30.708 24.149 30.708C23.813 30.708 23.6263 30.82 23.6263 31.0627C23.6263 31.156 23.6637 31.2307 23.7197 31.2867C23.7757 31.3427 23.8877 31.3987 24.0557 31.4547L24.3917 31.5667C24.6157 31.6414 24.765 31.7534 24.8583 31.8654C24.9517 31.9774 25.0077 32.1267 25.0077 32.2947C25.0077 32.556 24.9143 32.7614 24.7277 32.9107C24.541 33.06 24.2983 33.1347 23.981 33.1347C23.8503 33.1347 23.701 33.116 23.5703 33.0974C23.4397 33.06 23.309 33.0227 23.2157 32.9854V32.612C23.3463 32.6494 23.477 32.6867 23.6077 32.7054C23.757 32.724 23.869 32.7427 23.981 32.7427C24.1677 32.7427 24.2983 32.7054 24.3917 32.6494C24.485 32.5747 24.541 32.4814 24.541 32.3694C24.541 32.276 24.5037 32.2014 24.4477 32.1454C24.3917 32.0894 24.2797 32.0334 24.1303 31.9774L23.7943 31.828Z" fill="#0B0C0D"/>
<path d="M25.7916 32.1827C25.7916 32.388 25.8476 32.5187 25.9596 32.612C26.0716 32.7054 26.221 32.7427 26.4263 32.7427C26.613 32.7427 26.837 32.7054 27.061 32.6307V32.948C26.9676 32.9854 26.8743 33.0227 26.7436 33.06C26.613 33.0974 26.501 33.0974 26.3703 33.0974C26.053 33.0974 25.7916 33.004 25.6236 32.836C25.4556 32.6494 25.3623 32.4067 25.3623 32.052C25.3623 31.716 25.437 31.4547 25.605 31.268C25.773 31.0814 25.997 30.988 26.2956 30.988C26.5383 30.988 26.7436 31.0627 26.8743 31.1934C27.005 31.324 27.0796 31.5294 27.0796 31.7907C27.0796 31.9214 27.061 32.052 27.0423 32.1454H25.7916V32.1827ZM26.2956 31.3614C26.165 31.3614 26.0343 31.4174 25.9596 31.492C25.8663 31.5854 25.829 31.716 25.8103 31.8654H26.7063V31.828C26.7063 31.6787 26.669 31.548 26.5943 31.4734C26.5196 31.3987 26.4263 31.3614 26.2956 31.3614Z" fill="#0B0C0D"/>
<path d="M28.3112 33.0415C28.2179 33.0789 28.1246 33.0975 28.0126 33.0975C27.8632 33.0975 27.7326 33.0602 27.6579 32.9669C27.5832 32.8735 27.5459 32.7429 27.5459 32.5749V30.1855H28.0126V32.5375C28.0126 32.5935 28.0312 32.6495 28.0499 32.6682C28.0686 32.6869 28.1059 32.7055 28.1806 32.7055C28.2179 32.7055 28.2739 32.7055 28.3299 32.6869V33.0415H28.3112Z" fill="#0B0C0D"/>
<path d="M29.0397 32.1827C29.0397 32.388 29.0957 32.5187 29.2077 32.612C29.3197 32.7054 29.469 32.7427 29.6744 32.7427C29.861 32.7427 30.085 32.7054 30.309 32.6307V32.948C30.2157 32.9854 30.1224 33.0227 29.9917 33.06C29.861 33.0974 29.749 33.0974 29.6184 33.0974C29.301 33.0974 29.0397 33.004 28.8717 32.836C28.7037 32.6494 28.6104 32.4067 28.6104 32.052C28.6104 31.716 28.685 31.4547 28.853 31.268C29.021 31.0814 29.245 30.988 29.5437 30.988C29.7864 30.988 29.9917 31.0627 30.1224 31.1934C30.253 31.324 30.3277 31.5294 30.3277 31.7907C30.3277 31.9214 30.309 32.052 30.2904 32.1454H29.0397V32.1827ZM29.525 31.3614C29.3944 31.3614 29.2637 31.4174 29.189 31.492C29.0957 31.5854 29.0397 31.716 29.0397 31.8654H29.9357V31.828C29.9357 31.6787 29.8984 31.548 29.8237 31.4734C29.7677 31.3987 29.6744 31.3614 29.525 31.3614Z" fill="#0B0C0D"/>
<path d="M32.1764 32.9854C32.0271 33.0601 31.8404 33.1161 31.6351 33.1161C31.3364 33.1161 31.0938 33.0227 30.9258 32.8547C30.7578 32.6681 30.6831 32.4254 30.6831 32.1081C30.6831 31.7721 30.7764 31.5107 30.9444 31.3427C31.1124 31.1561 31.3551 31.0627 31.6538 31.0627C31.8404 31.0627 32.0084 31.1001 32.1764 31.1747V31.5107C32.0084 31.4547 31.8591 31.4361 31.7284 31.4361C31.5418 31.4361 31.3924 31.4921 31.2991 31.5854C31.2058 31.6974 31.1684 31.8654 31.1684 32.0707V32.1267C31.1684 32.3507 31.2244 32.5001 31.2991 32.6121C31.3924 32.7054 31.5418 32.7614 31.7284 32.7614C31.8591 32.7614 32.0271 32.7427 32.1764 32.6867V32.9854Z" fill="#0B0C0D"/>
<path d="M33.7446 33.0227C33.6139 33.0787 33.4646 33.0974 33.3153 33.0974C33.1099 33.0974 32.9606 33.06 32.8486 32.9667C32.7553 32.8734 32.6993 32.724 32.6993 32.5187V31.4547H32.3633V31.156L32.7179 31.1L32.7926 30.54H33.1659V31.0814H33.7259V31.436H33.1659V32.4814C33.1659 32.5747 33.1846 32.6307 33.2219 32.668C33.2593 32.7054 33.3339 32.724 33.4459 32.724C33.5579 32.724 33.6513 32.724 33.7446 32.6867V33.0227Z" fill="#0B0C0D"/>
<path d="M35.7419 33.0601V30.7454H34.9019V30.3534H37.0672V30.7454H36.2272V33.0601H35.7419Z" fill="#0B0C0D"/>
<path d="M37.4212 33.0601V31.0814H37.8692V33.0601H37.4212ZM37.6452 30.7454C37.5519 30.7454 37.4959 30.7268 37.4399 30.6708C37.3839 30.6148 37.3652 30.5588 37.3652 30.4841C37.3652 30.3908 37.3839 30.3348 37.4399 30.2974C37.4959 30.2414 37.5519 30.2228 37.6452 30.2228C37.7386 30.2228 37.7946 30.2414 37.8506 30.2974C37.9066 30.3348 37.9252 30.4094 37.9252 30.4841C37.9252 30.5588 37.9066 30.6334 37.8506 30.6708C37.7946 30.7268 37.7386 30.7454 37.6452 30.7454Z" fill="#0B0C0D"/>
<path d="M38.7648 32.1827C38.7648 32.388 38.8208 32.5187 38.9328 32.612C39.0448 32.7054 39.1941 32.7427 39.3995 32.7427C39.5861 32.7427 39.8101 32.7054 40.0341 32.6307V32.948C39.9408 32.9854 39.8474 33.0227 39.7168 33.06C39.5861 33.0974 39.4741 33.0974 39.3434 33.0974C39.0261 33.0974 38.7648 33.004 38.5968 32.836C38.4288 32.6494 38.3354 32.4067 38.3354 32.052C38.3354 31.716 38.4101 31.4547 38.5781 31.268C38.7461 31.0814 38.9701 30.988 39.2688 30.988C39.5114 30.988 39.7168 31.0627 39.8475 31.1934C39.9781 31.324 40.0528 31.5294 40.0528 31.7907C40.0528 31.9214 40.0341 32.052 40.0155 32.1454H38.7648V32.1827ZM39.2688 31.3614C39.1381 31.3614 39.0074 31.4174 38.9328 31.492C38.8394 31.5854 38.8021 31.716 38.7834 31.8654H39.6795V31.828C39.6795 31.6787 39.6421 31.548 39.5675 31.4734C39.4928 31.3987 39.3994 31.3614 39.2688 31.3614Z" fill="#0B0C0D"/>
<path d="M40.5195 33.0601V31.0814H40.8929L40.9489 31.3801C41.0609 31.2681 41.1542 31.1934 41.2475 31.1374C41.3409 31.0814 41.4342 31.0627 41.5462 31.0627C41.6022 31.0627 41.6395 31.0627 41.6955 31.0814V31.4921C41.6209 31.4734 41.5462 31.4734 41.4715 31.4734C41.2849 31.4734 41.1169 31.5294 40.9675 31.6227V33.0601H40.5195Z" fill="#0B0C0D"/>
<path d="M28.1806 35.7106C27.9566 35.6173 27.8072 35.5239 27.6952 35.4119C27.6019 35.2999 27.5459 35.1506 27.5459 34.9826C27.5459 34.7399 27.6392 34.5533 27.8072 34.4039C27.9752 34.2546 28.1992 34.1986 28.4979 34.1986C28.7406 34.1986 28.9832 34.2359 29.2259 34.3293V34.7026C28.9646 34.6279 28.7406 34.5906 28.5352 34.5906C28.1992 34.5906 28.0126 34.7026 28.0126 34.9453C28.0126 35.0386 28.0499 35.1133 28.1059 35.1693C28.1619 35.2253 28.2739 35.2813 28.4419 35.3373L28.7779 35.4493C28.9832 35.5239 29.1512 35.6359 29.2446 35.7479C29.3379 35.8599 29.3939 36.0093 29.3939 36.1773C29.3939 36.4386 29.3006 36.6439 29.1139 36.7933C28.9272 36.9426 28.6846 37.0173 28.3672 37.0173C28.2366 37.0173 28.0872 36.9986 27.9566 36.9799C27.8259 36.9426 27.6952 36.9053 27.6019 36.8679V36.4946C27.7326 36.5319 27.8632 36.5693 27.9939 36.5879C28.1432 36.6066 28.2552 36.6253 28.3672 36.6253C28.5539 36.6253 28.6846 36.5879 28.7779 36.5319C28.8712 36.4573 28.9272 36.3639 28.9272 36.2519C28.9272 36.1586 28.8899 36.0839 28.8339 36.0279C28.7779 35.9719 28.6659 35.9159 28.5166 35.8599L28.1806 35.7106Z" fill="#0B0C0D"/>
<path d="M30.1974 36.0654C30.1974 36.2707 30.2534 36.4014 30.3654 36.4947C30.4774 36.5881 30.6267 36.6254 30.8321 36.6254C31.0187 36.6254 31.2427 36.5881 31.4667 36.5134V36.8307C31.3734 36.8681 31.2801 36.9054 31.1494 36.9427C31.0187 36.9801 30.9067 36.9801 30.7761 36.9801C30.4587 36.9801 30.1974 36.8867 30.0294 36.7187C29.8614 36.5321 29.7681 36.2894 29.7681 35.9347C29.7681 35.5987 29.8427 35.3374 30.0107 35.1507C30.1787 34.9641 30.4027 34.8707 30.7014 34.8707C30.9441 34.8707 31.1494 34.9454 31.2801 35.0761C31.4107 35.2067 31.4854 35.4121 31.4854 35.6734C31.4854 35.8041 31.4667 35.9347 31.4481 36.0281H30.1974V36.0654ZM30.6827 35.2441C30.5521 35.2441 30.4214 35.2814 30.3467 35.3747C30.2534 35.4681 30.2161 35.5987 30.1974 35.7481H31.0934V35.7107C31.0934 35.5614 31.0561 35.4307 30.9814 35.3561C30.9067 35.3001 30.8134 35.2441 30.6827 35.2441Z" fill="#0B0C0D"/>
<path d="M31.9331 36.9428V34.9641H32.3251L32.3811 35.2628C32.4931 35.1508 32.5864 35.0761 32.6798 35.0201C32.7731 34.9641 32.8664 34.9454 32.9784 34.9454C33.0344 34.9454 33.0718 34.9454 33.1278 34.9641V35.3748C33.0531 35.3561 32.9784 35.3561 32.9038 35.3561C32.7171 35.3561 32.5491 35.4121 32.3998 35.5054V36.9428H31.9331Z" fill="#0B0C0D"/>
<path d="M33.9685 36.9428L33.2031 34.9641H33.6885L34.1925 36.5321L34.6965 34.9641H35.1631L34.3978 36.9428H33.9685Z" fill="#0B0C0D"/>
<path d="M35.4798 36.9428V34.9641H35.9278V36.9428H35.4798ZM35.7038 34.6468C35.6105 34.6468 35.5545 34.6281 35.4985 34.5721C35.4425 34.5161 35.4238 34.4601 35.4238 34.3855C35.4238 34.2921 35.4425 34.2361 35.4985 34.1988C35.5545 34.1428 35.6105 34.1241 35.7038 34.1241C35.7972 34.1241 35.8532 34.1428 35.9092 34.1988C35.9652 34.2361 35.9838 34.3108 35.9838 34.3855C35.9838 34.4601 35.9652 34.5348 35.9092 34.5721C35.8718 34.6281 35.7972 34.6468 35.7038 34.6468Z" fill="#0B0C0D"/>
<path d="M37.9064 36.8681C37.7571 36.9428 37.5704 36.9988 37.3651 36.9988C37.0664 36.9988 36.8238 36.9054 36.6558 36.7374C36.4878 36.5508 36.4131 36.3081 36.4131 35.9908C36.4131 35.6548 36.5064 35.3934 36.6744 35.2254C36.8424 35.0388 37.0851 34.9454 37.3838 34.9454C37.5704 34.9454 37.7384 34.9828 37.9064 35.0574V35.3934C37.7384 35.3374 37.5891 35.3188 37.4584 35.3188C37.2718 35.3188 37.1224 35.3748 37.0291 35.4681C36.9358 35.5801 36.8984 35.7481 36.8984 35.9534V36.0094C36.8984 36.2334 36.9358 36.3828 37.0291 36.4948C37.1224 36.5881 37.2718 36.6441 37.4584 36.6441C37.5891 36.6441 37.7571 36.6254 37.9064 36.5694V36.8681Z" fill="#0B0C0D"/>
<path d="M38.6344 36.0654C38.6344 36.2707 38.6904 36.4014 38.8024 36.4947C38.9144 36.5881 39.0637 36.6254 39.2691 36.6254C39.4557 36.6254 39.6797 36.5881 39.9037 36.5134V36.8307C39.8104 36.8681 39.7171 36.9054 39.5864 36.9427C39.4744 36.9801 39.3437 36.9801 39.2131 36.9801C38.8957 36.9801 38.6344 36.8867 38.4664 36.7187C38.2984 36.5321 38.2051 36.2894 38.2051 35.9347C38.2051 35.5987 38.2797 35.3374 38.4477 35.1507C38.6157 34.9641 38.8397 34.8707 39.1384 34.8707C39.3811 34.8707 39.5864 34.9454 39.7171 35.0761C39.8477 35.2067 39.9224 35.4121 39.9224 35.6734C39.9224 35.8041 39.9037 35.9347 39.8851 36.0281H38.6344V36.0654ZM39.1384 35.2441C39.0077 35.2441 38.8771 35.2814 38.8024 35.3747C38.7091 35.4681 38.6717 35.5987 38.6531 35.7481H39.5491V35.7107C39.5491 35.5614 39.5117 35.4307 39.4371 35.3561C39.3624 35.3001 39.2691 35.2441 39.1384 35.2441Z" fill="#0B0C0D"/>
<path d="M41.285 36.4201C41.285 36.3641 41.2663 36.3081 41.229 36.2894C41.1916 36.2521 41.117 36.2148 41.0236 36.1774L40.7063 36.0468C40.4076 35.9348 40.277 35.7481 40.277 35.5054C40.277 35.3188 40.3516 35.1881 40.4823 35.0761C40.613 34.9641 40.7996 34.9268 41.0236 34.9268C41.2476 34.9268 41.4343 34.9641 41.6023 35.0574V35.3748C41.397 35.3188 41.2103 35.2814 41.0423 35.2814C40.9303 35.2814 40.837 35.3001 40.781 35.3374C40.725 35.3748 40.6876 35.4308 40.6876 35.5054C40.6876 35.5614 40.7063 35.6174 40.7436 35.6361C40.781 35.6734 40.8556 35.7108 40.949 35.7481L41.2476 35.8601C41.397 35.9161 41.509 35.9908 41.5836 36.0841C41.6583 36.1588 41.6956 36.2708 41.6956 36.4014C41.6956 36.5881 41.621 36.7561 41.4903 36.8681C41.3596 36.9801 41.1543 37.0361 40.9116 37.0361C40.781 37.0361 40.669 37.0174 40.557 36.9988C40.445 36.9801 40.333 36.9428 40.2583 36.8868V36.5694C40.501 36.6441 40.725 36.7001 40.9116 36.7001C41.0423 36.7001 41.1356 36.6814 41.1916 36.6441C41.2663 36.5694 41.285 36.4948 41.285 36.4201Z" fill="#0B0C0D"/>
</g>
</g>
<defs>
<clipPath id="clip0_272_3428">
<rect width="46.6667" height="46.6667" fill="white" transform="translate(0.666504 0.7854)"/>
</clipPath>
</defs>
</svg>
