<?xml version="1.0" encoding="UTF-8"?>
<svg xmlns="http://www.w3.org/2000/svg" width="66" height="41" viewBox="0 0 66 41" fill="none">
  <path d="M31.1497 22.7113C31.0097 21.7113 31.5697 20.4013 30.5197 19.8213C29.2097 19.2713 27.9797 17.2313 26.5197 17.7413C21.8197 19.8413 23.0497 19.4713 22.4197 24.2313C22.388 24.3848 22.4128 24.5446 22.4897 24.6813C22.5634 24.815 22.6795 24.9206 22.8197 24.9813C24.2697 25.6313 25.5797 27.1513 27.1297 27.2813C28.2597 26.7313 29.3497 26.1113 30.4697 25.5813C31.5897 25.0513 31.0097 23.7013 31.1797 22.7213" fill="#0C213E"></path>
  <path d="M16.7004 27.3537C17.9604 26.1837 20.6404 25.6837 21.1804 24.0537C21.0604 22.7437 22.1804 20.1337 21.3304 19.2537C20.1904 18.8237 19.1104 17.3737 17.8504 17.6837C13.9004 20.1537 13.9104 20.1337 13.4004 24.7337C13.4004 25.9737 15.8404 26.5137 16.7004 27.3437" fill="#0C213E"></path>
  <path d="M32.3703 22.8845C31.8403 26.6745 34.0603 25.6446 36.2303 27.6846C36.6303 28.0146 40.8903 25.6845 40.7603 25.2045C40.7603 20.6345 40.2303 21.2845 36.5703 19.1145C35.3003 18.8245 34.0203 19.9246 32.8003 20.2846C32.0203 20.8346 32.4803 22.0445 32.3703 22.8845Z" fill="#0C213E"></path>
  <path d="M41.9096 22.6314H41.8496C41.8496 26.5714 43.2796 25.9814 46.2396 27.6314C46.7796 27.7714 49.4996 25.6314 49.5296 25.0814C48.8796 21.0814 49.9196 20.3114 45.5296 18.9614C44.4096 18.8714 43.6696 20.2014 42.6896 20.6114C41.7096 21.0214 41.7896 21.7414 41.8896 22.6114" fill="#0C213E"></path>
  <path d="M27.9004 16.3542C29.0404 17.3582 30.2574 18.271 31.5404 19.0842C31.6222 19.1365 31.7143 19.1706 31.8104 19.1842C31.906 19.2042 32.0048 19.2042 32.1004 19.1842C33.2604 18.5242 35.1004 18.4542 35.8104 17.3142C35.8104 16.0842 36.9404 14.2542 36.1704 13.2642C33.3904 10.5442 33.2804 11.1542 29.8204 12.2642C29.0904 12.4742 28.3104 12.6242 28.5204 13.6842C28.2704 14.5642 28.1404 15.4742 27.9404 16.4442" fill="#0C213E"></path>
  <path d="M27.3102 12.6024C26.9902 11.9124 24.1902 9.99236 23.4402 10.6024C20.0002 12.2924 19.4402 11.9124 18.9502 16.0724C19.4102 17.1924 21.0702 17.5624 22.0202 18.2924C23.5002 18.2924 24.8902 16.9924 26.2902 16.4524C27.2902 15.5524 26.9002 13.9724 27.2902 12.5624" fill="#0C213E"></path>
  <path d="M28.1297 11.3517C29.7897 10.9917 31.3397 10.4117 32.9597 9.93169C33.5773 9.0679 34.0783 8.12645 34.4498 7.13169C34.6798 6.48169 31.4498 4.74169 30.8598 4.94169C29.3798 5.46169 26.6197 5.22169 25.7697 6.59169C24.2497 10.1817 25.2497 9.59169 28.1297 11.3417" fill="#0C213E"></path>
  <path d="M52.1997 17.5234C49.1997 20.4234 50.4197 21.2734 50.9197 24.9434C51.5297 26.0834 53.1697 26.4634 54.1797 27.2834C54.9897 26.3734 56.4697 25.6534 56.5597 24.3934C55.5597 20.3334 56.2597 19.5334 52.2097 17.5234" fill="#0C213E"></path>
  <path d="M39.7601 12.7634C41.8801 12.7634 42.4801 12.9834 43.4801 10.9634C43.5298 10.9086 43.5673 10.8438 43.5901 10.7734C43.6055 10.7009 43.6055 10.6259 43.5901 10.5534C43.5881 10.4839 43.571 10.4157 43.5401 10.3534C43.4982 10.293 43.4476 10.2391 43.3901 10.1934C40.6701 7.4134 40.6901 6.9134 36.6201 7.1934C35.2301 7.1234 35.1301 9.0034 34.5101 9.9134C34.4901 9.99554 34.4901 10.0813 34.5101 10.1634C34.5103 10.2279 34.5204 10.292 34.5401 10.3534C36.0301 11.7334 37.4001 13.3534 39.7601 12.7634Z" fill="#0C213E"></path>
  <path d="M44.7901 11.2031C42.4201 13.9431 44.0201 14.4431 45.2601 17.2031C46.1101 18.2931 47.7701 18.4631 48.9801 19.1031C49.9801 18.9231 50.3701 17.5731 51.1001 16.9631C51.5701 15.9631 49.8101 14.0931 49.4901 13.0131C48.2901 11.9131 46.3201 11.8731 44.7901 11.2031Z" fill="#0C213E"></path>
  <path d="M18.3997 12.7434C17.8997 12.1134 15.6697 10.8334 14.9697 11.4334C13.8197 12.4334 12.1897 13.0934 11.7697 14.6634C11.5797 15.6634 11.0697 17.0834 11.5497 18.0134C13.7797 20.1234 14.4197 18.4734 16.4497 17.2334C18.3097 16.4434 17.7497 14.4934 18.4497 12.7234" fill="#0C213E"></path>
  <path d="M12.8104 20.3536C11.9604 20.0036 11.1704 18.9036 10.2404 19.2036C9.17043 20.2036 7.24043 20.7836 6.96043 22.3936C6.31043 25.8336 5.83044 25.6636 8.86044 27.7536C12.8504 25.2436 12.1304 24.6136 12.8104 20.3536Z" fill="#0C213E"></path>
  <path d="M21.3204 4.89453C18.8204 6.10453 16.4204 6.46453 16.1904 9.71453C16.4904 10.6645 18.0004 10.7645 18.8004 11.2545C19.8004 11.4045 22.8904 9.72453 23.7004 9.03453C25.1204 5.28453 24.7904 6.03453 21.3304 4.89453" fill="#0C213E"></path>
  <path d="M44.2704 18.0113C43.4404 16.7013 43.1004 14.8713 41.9204 14.0113C40.6204 14.1913 38.3804 13.4013 37.5804 14.6613C36.2704 18.7513 37.8004 18.2513 40.7704 20.2113C42.0804 20.2913 43.1004 18.6813 44.2704 18.0713" fill="#0C213E"></path>
  <path d="M49.4296 11.3539C49.6896 10.6839 50.6996 10.0539 50.0796 9.40388C48.1896 7.15388 47.2596 5.72388 44.1296 5.40388C42.3296 4.94388 42.3296 4.93388 41.6496 6.15388C41.5988 6.39393 41.6305 6.64409 41.7396 6.86388C43.9396 9.58388 46.0896 10.5439 49.4296 11.3839" fill="#0C213E"></path>
  <path d="M41.3302 4.42136C38.3302 2.21136 37.2502 2.19136 33.6602 2.35136C32.8402 2.35136 32.6602 3.46136 32.2402 3.98136C33.4902 4.64136 34.4502 5.62136 35.7502 5.91136C37.1802 5.91136 38.6202 5.91136 40.0502 5.91136C40.7902 5.82136 40.9002 4.91136 41.3402 4.38136" fill="#0C213E"></path>
  <path d="M55.8598 18.3527C56.1998 17.5127 57.0698 16.9727 56.5498 16.0727C55.5498 14.0727 54.7598 11.9327 52.4498 11.1727C51.3898 10.5527 51.4498 10.5627 50.7198 11.5527C50.59 11.7002 50.5126 11.8866 50.4998 12.0827C50.4874 12.2776 50.5402 12.4711 50.6498 12.6327C52.0298 15.8427 52.7798 16.6827 55.8598 18.3527Z" fill="#0C213E"></path>
  <path d="M22.2305 3.84193C23.5405 4.18193 24.6505 5.00193 25.9405 4.90193C27.9405 4.10193 31.0805 4.51193 31.9405 2.12193C30.6905 1.84193 29.5405 1.18193 28.2905 1.21193C26.1905 1.88193 23.1605 1.40193 22.2305 3.82193" fill="#0C213E"></path>
  <path d="M60.36 27.0134C61.77 25.7734 61.1 24.3034 60.69 22.7734C60.53 20.6634 59.18 19.2234 57.69 17.7734C56.59 19.4034 56.6 18.9134 57.04 20.5834C57.58 23.4534 57.93 25.1534 60.34 27.0034" fill="#0C213E"></path>
  <path d="M4.82035 18.9531C2.53035 20.3331 2.53036 22.6731 1.92036 24.9531C1.62036 25.9531 2.47035 26.6431 2.84035 27.5431C3.65035 26.6731 4.84035 26.2031 5.18035 25.0731C5.66035 22.8731 6.28035 21.0231 4.82035 18.9531Z" fill="#0C213E"></path>
  <path d="M8.84961 12.7414C9.84961 12.6414 10.8496 13.0114 11.6996 12.4914C13.4196 11.2314 15.8396 9.75145 15.3296 7.31145C12.9096 6.41145 11.2496 9.22145 9.49962 10.4314C8.94962 11.0514 9.07961 11.8614 8.84961 12.7414Z" fill="#0C213E"></path>
  <path d="M6.81006 20.2236C10.1201 17.9136 10.1501 17.9036 10.6701 13.8836C9.79006 14.0136 8.84006 13.5536 8.28006 14.1936C7.49006 15.4336 6.70005 16.6836 5.93005 17.9336C5.63005 18.7036 6.54006 19.4136 6.81006 20.2136" fill="#0C213E"></path>
  <path d="M21.5402 2.35228C19.2302 1.96228 17.4602 3.59228 15.4402 4.42228C14.7402 4.73228 14.5602 5.29228 14.2402 5.90228C16.0402 6.35228 21.4002 4.35228 21.5402 2.35228Z" fill="#0C213E"></path>
  <path d="M39.1296 1.48494C39.1202 1.55797 39.1202 1.63191 39.1296 1.70494C40.2596 2.31494 41.3496 3.14494 42.4996 3.70494C43.4996 3.70494 47.3196 5.52494 47.4996 4.42494C45.1396 2.68494 42.0596 1.14494 39.0996 1.48494" fill="#0C213E"></path>
  <path d="M54.7296 11.0341L54.9696 10.9641C53.8696 8.22406 51.1696 6.44406 48.5596 5.16406C49.1296 7.56406 52.4796 9.96406 54.7296 11.0441" fill="#0C213E"></path>
  <path d="M60.2695 18.5331C60.1995 17.2731 57.5595 12.9231 56.1195 11.7031C55.6895 12.5531 58.7995 17.6831 60.2695 18.5331Z" fill="#0C213E"></path>
  <path d="M38.2903 0.883067V0.633067C35.5981 0.102121 32.8509 -0.0960306 30.1104 0.043067C32.6759 1.24676 35.5743 1.54295 38.3303 0.883067" fill="#0C213E"></path>
  <path d="M7.87012 9.96188C8.93012 9.64188 12.6501 6.32187 12.6601 5.67188L7.87012 9.96188Z" fill="#0C213E"></path>
  <path d="M2.03996 19.6836C1.32645 21.6099 0.715586 23.5726 0.209961 25.5636L0.48996 25.6336C1.00996 23.6536 1.53996 21.6736 2.03996 19.6836Z" fill="#0C213E"></path>
  <path d="M27.3199 0.123406C25.5199 -0.0165938 20.52 1.34341 22.25 1.23341C23.991 1.15641 25.706 0.780951 27.3199 0.123406Z" fill="#0C213E"></path>
  <path d="M61.5403 20.8438C60.9603 21.5838 62.1903 25.1237 62.7803 25.1937L62.2603 23.0637" fill="#0C213E"></path>
  <path d="M3.13965 18.8031C4.67965 18.1931 7.81964 13.1531 7.50964 11.7031C5.25124 13.4715 3.70095 15.9902 3.13965 18.8031Z" fill="#0C213E"></path>
  <path d="M1.90999 32.4323V40.2523H0V32.4323H1.90999ZM10.61 40.2523H8.70999L5.53999 35.4323V40.2523H3.64V32.4323H5.53999L8.73 37.2823V32.4323H10.63L10.61 40.2523ZM15.25 32.4323C15.9992 32.4169 16.7408 32.5851 17.41 32.9223C18.0184 33.246 18.5164 33.7439 18.84 34.3523C19.1744 34.9803 19.3493 35.6809 19.3493 36.3923C19.3493 37.1038 19.1744 37.8044 18.84 38.4323C18.5073 39.0248 18.0061 39.5051 17.4 39.8123C16.7356 40.1531 15.9964 40.3215 15.25 40.3023H12.33V32.4323H15.25ZM15.13 38.6023C15.4351 38.62 15.7407 38.577 16.0291 38.4757C16.3175 38.3744 16.5829 38.2169 16.81 38.0123C17.019 37.7899 17.1801 37.5269 17.2833 37.2396C17.3865 36.9523 17.4296 36.647 17.41 36.3423C17.4413 36.0352 17.4038 35.725 17.3003 35.4341C17.1967 35.1433 17.0298 34.8792 16.8115 34.6609C16.5932 34.4426 16.329 34.2756 16.0382 34.1721C15.7474 34.0686 15.4371 34.0311 15.13 34.0623H14.23V38.6023H15.13ZM24.74 40.2523L23.11 37.3523H22.65V40.2523H20.75V32.4323H23.95C24.492 32.4178 25.0297 32.5309 25.52 32.7623C25.9392 32.9456 26.2893 33.2573 26.52 33.6523C26.7419 34.0275 26.8561 34.4565 26.85 34.8923C26.8573 35.3926 26.6991 35.8813 26.4 36.2823C26.0824 36.7116 25.627 37.0187 25.11 37.1523L26.91 40.2523H24.74ZM22.65 35.9523H23.83C23.971 35.9668 24.1135 35.951 24.248 35.9062C24.3824 35.8614 24.5058 35.7885 24.61 35.6923C24.7032 35.5981 24.7755 35.4853 24.822 35.3612C24.8685 35.2371 24.8883 35.1046 24.88 34.9723C24.8873 34.8432 24.8671 34.7139 24.8205 34.5932C24.7739 34.4725 24.7022 34.3631 24.61 34.2723C24.5039 34.1792 24.3802 34.1083 24.2462 34.0636C24.1123 34.019 23.9708 34.0016 23.83 34.0123H22.65V35.9523ZM33.21 38.8723H30.3L29.83 40.2523H27.83L30.66 32.4323H32.87L35.69 40.2523H33.69L33.21 38.8723ZM32.72 37.4023L31.72 34.5423L30.72 37.4023H32.72ZM41.79 32.4023V37.7523C41.8112 38.1018 41.76 38.4518 41.6396 38.7805C41.5191 39.1092 41.332 39.4094 41.09 39.6623C40.5793 40.1234 39.9073 40.3642 39.22 40.3323C38.4857 40.3695 37.7665 40.1142 37.22 39.6223C36.9628 39.3599 36.7639 39.046 36.6364 38.7014C36.5089 38.3567 36.4556 37.989 36.48 37.6223H38.37C38.3532 37.8875 38.4235 38.1508 38.57 38.3723C38.6427 38.453 38.7325 38.5163 38.8329 38.5579C38.9332 38.5994 39.0416 38.618 39.15 38.6123C39.2508 38.6187 39.3517 38.6023 39.4452 38.5642C39.5387 38.5261 39.6224 38.4673 39.69 38.3923C39.8234 38.2031 39.8871 37.9733 39.87 37.7423V32.4323L41.79 32.4023ZM48.54 38.8723H45.62L45.15 40.2523H43.15L45.98 32.4323H48.18L51.01 40.2523H49.01L48.54 38.8723ZM48.05 37.4023L47.05 34.5423L46.05 37.4023H48.05ZM57.05 38.8723H54.13L53.66 40.2523H51.66L54.54 32.4323H56.74L59.54 40.2523H57.54L57.05 38.8723ZM56.54 37.4023L55.54 34.5423L54.54 37.4023H56.54ZM62.61 38.7823H65.1V40.2523H60.71V32.4323H62.61V38.7823Z" fill="#0C213E"></path>
</svg>
