<svg width="110" height="35" viewBox="0 0 110 35" fill="none" xmlns="http://www.w3.org/2000/svg">
<g clip-path="url(#clip0_271_3232)">
<mask id="mask0_271_3232" style="mask-type:luminance" maskUnits="userSpaceOnUse" x="0" y="1" width="110" height="34">
<path d="M110 1.36328H0.3125V34.2695H110V1.36328Z" fill="white"/>
</mask>
<g mask="url(#mask0_271_3232)">
<mask id="mask1_271_3232" style="mask-type:luminance" maskUnits="userSpaceOnUse" x="0" y="1" width="110" height="34">
<path d="M0.3125 1.36328H110V34.2695H0.3125V1.36328Z" fill="white"/>
</mask>
<g mask="url(#mask1_271_3232)">
<path d="M67.5831 34.075L66.3781 30.6597H65.8024L64.5972 34.075H65.0121L65.3681 33.0308H66.8124L67.1685 34.075H67.5831ZM66.0803 30.972H66.0951L66.7051 32.6989H65.4705L66.0803 30.972ZM70.3067 30.601C69.6625 30.601 69.2527 30.9963 69.2527 31.5182C69.2527 32.0308 69.6187 32.2843 70.2823 32.4698C70.9653 32.6601 71.2728 32.787 71.2728 33.1723C71.2728 33.5384 71.0188 33.7676 70.4871 33.7676C69.9601 33.7676 69.5748 33.4114 69.3452 33.0651H69.3258L69.111 33.426C69.3258 33.7578 69.8333 34.1335 70.497 34.1335C71.214 34.1335 71.658 33.7822 71.658 33.1628C71.658 32.5624 71.1995 32.3527 70.5554 32.1723C69.8089 31.9624 69.643 31.8256 69.643 31.5086C69.643 31.2207 69.8578 30.9572 70.3163 30.9572C70.7263 30.9572 71.0626 31.2352 71.2629 31.5719H71.2824L71.497 31.2306C71.2922 30.9084 70.8628 30.601 70.3067 30.601ZM72.4315 30.3862C72.2413 30.3862 72.1387 30.5033 72.1387 30.6791C72.1387 30.8499 72.2413 30.967 72.4315 30.967C72.622 30.967 72.7241 30.8499 72.7241 30.6791C72.7241 30.5033 72.622 30.3862 72.4315 30.3862ZM72.617 34.075V31.3428H72.2509V34.075H72.617ZM74.4299 31.284C73.7616 31.284 73.2051 31.8696 73.2051 32.6989C73.2051 33.5334 73.6296 34.1335 74.4641 34.1335C74.9179 34.1335 75.318 33.9091 75.5228 33.6163L75.3375 33.2748H75.3227C75.1812 33.4942 74.8982 33.7871 74.4592 33.7871C73.9321 33.7871 73.5957 33.4015 73.5664 32.8309H75.6057C75.6057 32.8309 75.6106 32.7429 75.6106 32.6696C75.6106 31.8111 75.0983 31.284 74.4299 31.284ZM74.4299 31.6159C74.8691 31.6159 75.2105 31.9183 75.2449 32.5087H73.5809C73.6296 32.0013 73.9663 31.6159 74.4299 31.6159ZM78.87 31.284C78.46 31.284 78.1819 31.4938 78.05 31.7478H78.0355C77.9429 31.4938 77.6938 31.284 77.328 31.284C76.9573 31.284 76.7182 31.45 76.5717 31.7038H76.5622L76.5181 31.3428H76.201V34.075H76.5668V32.5087C76.5668 31.9427 76.8597 31.6159 77.2354 31.6159C77.5477 31.6159 77.7426 31.7916 77.7426 32.2649V34.075H78.1088V32.5087C78.1088 31.9233 78.4112 31.6159 78.782 31.6159C79.0992 31.6159 79.2944 31.7916 79.2944 32.2649V34.075H79.6603V32.128C79.6603 31.5964 79.3628 31.284 78.87 31.284ZM81.4293 31.284C80.761 31.284 80.2046 31.8696 80.2046 32.6989C80.2046 33.5334 80.6291 34.1335 81.4636 34.1335C81.9174 34.1335 82.3175 33.9091 82.5222 33.6163L82.3369 33.2748H82.3221C82.1809 33.4942 81.8979 33.7871 81.4586 33.7871C80.9318 33.7871 80.5951 33.4015 80.5657 32.8309H82.6051C82.6051 32.8309 82.61 32.7429 82.61 32.6696C82.61 31.8111 82.0978 31.284 81.4293 31.284ZM81.4293 31.6159C81.8686 31.6159 82.2099 31.9183 82.2442 32.5087H80.5803C80.6291 32.0013 80.9658 31.6159 81.4293 31.6159ZM84.435 31.284C84.0395 31.284 83.747 31.4648 83.5761 31.7183H83.5616L83.5174 31.3428H83.2004V34.075H83.5663V32.6113C83.5663 32.0063 83.9079 31.6159 84.3663 31.6159C84.7862 31.6159 85.0007 31.8844 85.0007 32.3626V34.075H85.3667V32.2893C85.3667 31.7281 85.0544 31.284 84.435 31.284ZM86.8985 31.284C86.3177 31.284 86.0057 31.6551 86.0057 32.0308C86.0057 32.4355 86.2544 32.6551 86.8692 32.8111C87.5766 32.9918 87.6694 33.143 87.6694 33.3771C87.6694 33.5919 87.489 33.792 87.0645 33.792C86.6449 33.792 86.3325 33.5384 86.1324 33.2066H86.1179L85.908 33.5235C86.0836 33.826 86.5278 34.1335 87.079 34.1335C87.6305 34.1335 88.0304 33.826 88.0304 33.3771C88.0304 32.9332 87.767 32.7039 87.1179 32.5331C86.4496 32.3576 86.3666 32.2211 86.3666 32.0259C86.3666 31.8404 86.518 31.6159 86.8935 31.6159C87.2838 31.6159 87.5572 31.8549 87.7231 32.128H87.7425L87.9425 31.8209C87.7964 31.5964 87.4497 31.284 86.8985 31.284ZM89.9199 30.6597V34.075H91.1055C92.013 34.075 92.262 33.6018 92.262 33.1628C92.262 32.7235 92.0473 32.4553 91.7251 32.3332V32.3234C92.0812 32.1723 92.262 31.9282 92.262 31.5379C92.262 30.9865 91.9008 30.6597 91.2273 30.6597H89.9199ZM90.3101 31.0158H91.1983C91.6715 31.0158 91.8666 31.2401 91.8666 31.567C91.8666 31.9476 91.5691 32.1674 91.1544 32.1674H90.3101V31.0158ZM90.3101 32.5136H91.164C91.6567 32.5136 91.8715 32.7383 91.8715 33.1139C91.8715 33.4847 91.6471 33.7189 91.1202 33.7189H90.3101V32.5136ZM94.8975 34.075V31.3428H94.5317V32.9381C94.5317 33.4504 94.195 33.792 93.756 33.792C93.3803 33.792 93.1949 33.5675 93.1949 33.1284V31.3428H92.8288V33.1822C92.8288 33.7433 93.1216 34.1335 93.7169 34.1335C94.0973 34.1335 94.3757 33.9335 94.5122 33.6944H94.5267L94.5804 34.075H94.8975ZM96.4232 31.284C95.8427 31.284 95.5304 31.6551 95.5304 32.0308C95.5304 32.4355 95.7791 32.6551 96.3939 32.8111C97.1014 32.9918 97.1941 33.143 97.1941 33.3771C97.1941 33.5919 97.0137 33.792 96.5892 33.792C96.1697 33.792 95.8572 33.5384 95.6574 33.2066H95.6426L95.4327 33.5235C95.6086 33.826 96.0525 34.1335 96.6037 34.1335C97.1552 34.1335 97.5552 33.826 97.5552 33.3771C97.5552 32.9332 97.2918 32.7039 96.6429 32.5331C95.9743 32.3576 95.8916 32.2211 95.8916 32.0259C95.8916 31.8404 96.0427 31.6159 96.4182 31.6159C96.8088 31.6159 97.0819 31.8549 97.2478 32.128H97.2672L97.4675 31.8209C97.3211 31.5964 96.9747 31.284 96.4232 31.284ZM98.328 30.3862C98.1376 30.3862 98.0354 30.5033 98.0354 30.6791C98.0354 30.8499 98.1376 30.967 98.328 30.967C98.5183 30.967 98.6209 30.8499 98.6209 30.6791C98.6209 30.5033 98.5183 30.3862 98.328 30.3862ZM98.5133 34.075V31.3428H98.1475V34.075H98.5133ZM100.482 31.284C100.087 31.284 99.7944 31.4648 99.6239 31.7183H99.6091L99.5653 31.3428H99.2482V34.075H99.614V32.6113C99.614 32.0063 99.9557 31.6159 100.414 31.6159C100.834 31.6159 101.048 31.8844 101.048 32.3626V34.075H101.415V32.2893C101.415 31.7281 101.102 31.284 100.482 31.284ZM103.185 31.284C102.517 31.284 101.961 31.8696 101.961 32.6989C101.961 33.5334 102.385 34.1335 103.22 34.1335C103.673 34.1335 104.073 33.9091 104.278 33.6163L104.093 33.2748H104.078C103.937 33.4942 103.654 33.7871 103.215 33.7871C102.687 33.7871 102.351 33.4015 102.322 32.8309H104.361C104.361 32.8309 104.366 32.7429 104.366 32.6696C104.366 31.8111 103.854 31.284 103.185 31.284ZM103.185 31.6159C103.625 31.6159 103.966 31.9183 104 32.5087H102.336C102.385 32.0013 102.722 31.6159 103.185 31.6159ZM105.795 31.284C105.215 31.284 104.903 31.6551 104.903 32.0308C104.903 32.4355 105.152 32.6551 105.766 32.8111C106.474 32.9918 106.567 33.143 106.567 33.3771C106.567 33.5919 106.386 33.792 105.961 33.792C105.542 33.792 105.229 33.5384 105.03 33.2066H105.015L104.805 33.5235C104.981 33.826 105.425 34.1335 105.976 34.1335C106.527 34.1335 106.927 33.826 106.927 33.3771C106.927 32.9332 106.664 32.7039 106.015 32.5331C105.347 32.3576 105.264 32.2211 105.264 32.0259C105.264 31.8404 105.415 31.6159 105.791 31.6159C106.181 31.6159 106.454 31.8549 106.62 32.128H106.64L106.84 31.8209C106.693 31.5964 106.347 31.284 105.795 31.284ZM108.359 31.284C107.778 31.284 107.466 31.6551 107.466 32.0308C107.466 32.4355 107.715 32.6551 108.33 32.8111C109.037 32.9918 109.13 33.143 109.13 33.3771C109.13 33.5919 108.949 33.792 108.525 33.792C108.105 33.792 107.793 33.5384 107.593 33.2066H107.578L107.368 33.5235C107.544 33.826 107.988 34.1335 108.54 34.1335C109.091 34.1335 109.491 33.826 109.491 33.3771C109.491 32.9332 109.228 32.7039 108.579 32.5331C107.91 32.3576 107.827 32.2211 107.827 32.0259C107.827 31.8404 107.979 31.6159 108.354 31.6159C108.744 31.6159 109.018 31.8549 109.183 32.128H109.203L109.403 31.8209C109.257 31.5964 108.91 31.284 108.359 31.284Z" fill="#0B0C0D"/>
<mask id="mask2_271_3232" style="mask-type:luminance" maskUnits="userSpaceOnUse" x="0" y="1" width="110" height="34">
<path d="M0.3125 1.36328H110V34.2695H0.3125V1.36328Z" fill="white"/>
</mask>
<g mask="url(#mask2_271_3232)">
<path d="M51.6295 16.491C49.7688 16.491 48.5154 17.3919 48.026 18.4101H47.9672C47.458 17.3527 46.3416 16.491 44.6768 16.491C43.3256 16.491 42.2678 17.0001 41.5237 18.1752H41.4649L41.2887 16.7259H38.7036V27.6933H41.9548V22.2292C41.9548 20.545 42.5619 19.3698 43.9327 19.3698C44.9512 19.3698 45.5385 19.9182 45.5385 21.6417V27.6933H48.7701V22.2292C48.7701 20.5253 49.3772 19.3698 50.748 19.3698C51.7665 19.3698 52.3542 19.9182 52.3542 21.6417V27.6933H55.605V20.4079C55.605 19.2524 54.9979 16.491 51.6295 16.491Z" fill="#0B0C0D"/>
<path d="M62.3007 16.491C59.2845 16.491 56.9736 18.7235 56.9736 22.2684C56.9736 25.8719 59.3043 27.9283 62.5162 27.9283C64.5136 27.9283 66.0021 27.2624 66.6681 26.7336L65.6299 24.031H65.4733C64.8076 24.5401 63.8675 25.0886 62.4572 25.0886C61.0865 25.0886 60.205 24.3639 60.1464 23.3063H67.4121C67.4121 23.3063 67.4318 22.6601 67.4318 22.3272C67.4318 18.8411 65.3949 16.491 62.3007 16.491ZM62.3593 19.2524C63.5933 19.2524 64.357 20.0945 64.4549 20.9562H60.2638C60.4008 20.0749 61.1451 19.2524 62.3593 19.2524Z" fill="#0B0C0D"/>
<path d="M75.1476 16.491C73.6592 16.491 72.445 17.1959 71.8184 18.1752H71.7596L71.5833 16.7259H68.998V27.6933H72.2492V22.2292C72.2492 20.3099 73.4046 19.3698 74.5405 19.3698C75.5198 19.3698 76.264 20.0161 76.264 21.3087V27.6933H79.5152V20.3491C79.5152 18.2535 78.1051 16.491 75.1476 16.491Z" fill="#0B0C0D"/>
<path d="M91.9267 27.6937V13.1619H88.7932V17.8621H88.754C88.1469 17.0004 87.0698 16.4913 85.777 16.4913C82.8394 16.4913 80.8809 19.0765 80.8809 22.3667C80.8809 25.5589 82.7414 27.9287 85.6986 27.9287C87.4419 27.9287 88.4013 27.2432 89.0281 26.2444H89.0869L89.3611 27.6937H91.9267ZM86.5407 19.3703C87.9511 19.3703 88.9106 20.5453 88.9106 22.2099C88.9106 23.9922 87.9313 24.9323 86.5018 24.9323C85.0721 24.9323 84.1123 23.8943 84.1123 22.2295C84.1123 20.5649 85.1307 19.3703 86.5407 19.3703Z" fill="#0B0C0D"/>
<path d="M95.7174 11.3792C94.4052 11.3792 93.6807 12.1821 93.6807 13.3768C93.6807 14.5519 94.4052 15.4136 95.7174 15.4136C97.0298 15.4136 97.7543 14.5519 97.7543 13.3768C97.7543 12.1821 97.0298 11.3792 95.7174 11.3792ZM97.3036 27.6932V16.7257H94.0722V27.6932H97.3036Z" fill="#0B0C0D"/>
<path d="M106.242 22.151L109.474 16.7261H105.694L104.088 20.075L102.482 16.7261H98.702L101.933 22.151L98.3887 27.6934H102.208L104.088 24.2271L105.968 27.6934H109.787L106.242 22.151Z" fill="#0B0C0D"/>
<path fill-rule="evenodd" clip-rule="evenodd" d="M27.963 2.95096H5.84231C3.67245 2.95096 1.91341 4.69546 1.91341 6.84741V28.7854C1.91341 30.9372 3.67245 32.6818 5.84231 32.6818H27.963C30.1329 32.6818 31.892 30.9372 31.892 28.7854V6.84741C31.892 4.69546 30.1329 2.95096 27.963 2.95096ZM5.84231 1.36328C2.78829 1.36328 0.3125 3.81861 0.3125 6.84741V28.7854C0.3125 31.8141 2.78829 34.2695 5.84231 34.2695H27.963C31.017 34.2695 33.4929 31.8141 33.4929 28.7854V6.84741C33.4929 3.81861 31.017 1.36328 27.963 1.36328H5.84231Z" fill="#0B0C0D"/>
<path d="M13.3268 22.2036C12.4074 22.2036 11.788 22.6447 11.5461 23.1432H11.517C11.2654 22.6256 10.7138 22.2036 9.89117 22.2036C9.22342 22.2036 8.7008 22.453 8.33306 23.0282H8.30402L8.21692 22.3186H6.93945V27.688H8.54597V25.0129C8.54597 24.1883 8.84598 23.613 9.52342 23.613C10.0267 23.613 10.317 23.8815 10.317 24.7253V27.688H11.9138V25.0129C11.9138 24.1787 12.2139 23.613 12.8913 23.613C13.3945 23.613 13.6849 23.8815 13.6849 24.7253V27.688H15.2914V24.1213C15.2914 23.5556 14.9914 22.2036 13.3268 22.2036Z" fill="#0B0C0D"/>
<path d="M18.9302 24.9749L20.527 22.3191H18.6591L17.8656 23.9586L17.072 22.3191H15.2043L16.801 24.9749L15.0493 27.6883H16.9365L17.8656 25.9913L18.7946 27.6883H20.6818L18.9302 24.9749Z" fill="#0B0C0D"/>
</g>
</g>
</g>
</g>
<defs>
<clipPath id="clip0_271_3232">
<rect width="110" height="33.6541" fill="white" transform="translate(0 0.819824)"/>
</clipPath>
</defs>
</svg>
